<?xml version="1.0" encoding="UTF-8"?>
<svg version="1.1" xmlns="http://www.w3.org/2000/svg" width="32" height="32">
<path d="M0 0 C3.3 0 6.6 0 10 0 C8.41127651 20.97115005 8.41127651 20.97115005 4.125 27.875 C-0.21076927 30.8233231 -3.79420863 30.6372656 -8.94140625 30.6015625 C-12.57740062 29.88643717 -13.82260293 28.96294711 -16 26 C-16.25 22.25 -16.25 22.25 -16 19 C-12.7 19 -9.4 19 -6 19 C-6 19.99 -6 20.98 -6 22 C-5.01 22 -4.02 22 -3 22 C-2.95101563 21.41734375 -2.90203125 20.8346875 -2.8515625 20.234375 C-2.2306143 13.42535679 -1.19122901 6.73102216 0 0 Z " fill="#0088CC" transform="translate(19,1)"/>
</svg>
